<?xml version="1.0" encoding="UTF-8" standalone="no"?>
<!DOCTYPE svg PUBLIC "-//W3C//DTD SVG 1.1//EN" "http://www.w3.org/Graphics/SVG/1.1/DTD/svg11.dtd">
<svg width="100%" height="100%" viewBox="0 0 1317 1317" version="1.1" xmlns="http://www.w3.org/2000/svg" xmlns:xlink="http://www.w3.org/1999/xlink" xml:space="preserve" xmlns:serif="http://www.serif.com/" style="fill-rule:evenodd;clip-rule:evenodd;stroke-linejoin:round;stroke-miterlimit:2;">
    <g transform="matrix(4.16667,0,0,4.16667,0,0)">
        <path d="M158,0.5C71.011,0.505 0.504,71.012 0.5,158.001C0.504,244.989 71.011,315.495 158,315.5C244.988,315.495 315.494,244.989 315.5,158.001C315.494,71.012 244.988,0.505 158,0.5ZM258.762,258.763C232.951,284.561 197.373,300.498 158,300.499C118.625,300.498 83.048,284.561 57.235,258.763C31.438,232.952 15.503,197.373 15.499,158.001C15.503,118.626 31.438,83.049 57.235,57.236C83.048,31.438 118.625,15.504 158,15.5C197.373,15.504 232.951,31.438 258.762,57.236C284.56,83.049 300.497,118.626 300.499,158.001C300.497,197.373 284.56,232.952 258.762,258.763ZM157.998,141.356C179.289,141.318 196.511,124.093 196.55,102.8C196.511,81.51 179.289,64.29 157.998,64.25C136.708,64.29 119.484,81.51 119.446,102.8C119.484,124.093 136.708,141.318 157.998,141.356ZM179.73,151.384L136.267,151.384C122.042,151.384 109.183,157.143 99.862,166.46C90.542,175.784 84.784,188.642 84.784,202.866L84.784,238.629C105.34,246.873 130.642,251.753 157.998,251.75C185.357,251.753 210.661,246.873 231.215,238.629L231.215,202.866C231.215,188.642 225.456,175.784 216.136,166.46C206.812,157.143 193.953,151.384 179.73,151.384Z" style="fill:rgb(3,4,4);fill-rule:nonzero;"/>
    </g>
</svg>
